<svg xmlns="http://www.w3.org/2000/svg" viewBox="0 0 32 32">
  <defs>
    <linearGradient id="g" x1="0%" y1="0%" x2="100%" y2="100%">
      <stop offset="0%" stop-color="#00d9ff"/>
      <stop offset="100%" stop-color="#ec4899"/>
    </linearGradient>
  </defs>

  <!-- Outer ring -->
  <circle cx="16" cy="16" r="14.4" fill="none" stroke="url(#g)" stroke-width="0.6" opacity="0.4"/>

  <!-- Radiating spikes - long (cardinal + diagonal) -->
  <line x1="16" y1="8.8" x2="16" y2="0.64" stroke="url(#g)" stroke-width="0.8" stroke-linecap="round"/>
  <line x1="16" y1="23.2" x2="16" y2="31.36" stroke="url(#g)" stroke-width="0.8" stroke-linecap="round"/>
  <line x1="8.8" y1="16" x2="0.64" y2="16" stroke="url(#g)" stroke-width="0.8" stroke-linecap="round"/>
  <line x1="23.2" y1="16" x2="31.36" y2="16" stroke="url(#g)" stroke-width="0.8" stroke-linecap="round"/>
  <line x1="10.9" y1="10.9" x2="5.2" y2="5.2" stroke="url(#g)" stroke-width="0.8" stroke-linecap="round"/>
  <line x1="21.1" y1="10.9" x2="26.8" y2="5.2" stroke="url(#g)" stroke-width="0.8" stroke-linecap="round"/>
  <line x1="10.9" y1="21.1" x2="5.2" y2="26.8" stroke="url(#g)" stroke-width="0.8" stroke-linecap="round"/>
  <line x1="21.1" y1="21.1" x2="26.8" y2="26.8" stroke="url(#g)" stroke-width="0.8" stroke-linecap="round"/>

  <!-- Radiating spikes - short (intermediate angles) -->
  <line x1="13.3" y1="9.5" x2="11.2" y2="4.8" stroke="url(#g)" stroke-width="0.5" stroke-linecap="round"/>
  <line x1="18.7" y1="9.5" x2="20.8" y2="4.8" stroke="url(#g)" stroke-width="0.5" stroke-linecap="round"/>
  <line x1="9.5" y1="13.3" x2="4.8" y2="11.2" stroke="url(#g)" stroke-width="0.5" stroke-linecap="round"/>
  <line x1="22.5" y1="13.3" x2="27.2" y2="11.2" stroke="url(#g)" stroke-width="0.5" stroke-linecap="round"/>
  <line x1="9.5" y1="18.7" x2="4.8" y2="20.8" stroke="url(#g)" stroke-width="0.5" stroke-linecap="round"/>
  <line x1="22.5" y1="18.7" x2="27.2" y2="20.8" stroke="url(#g)" stroke-width="0.5" stroke-linecap="round"/>
  <line x1="13.3" y1="22.5" x2="11.2" y2="27.2" stroke="url(#g)" stroke-width="0.5" stroke-linecap="round"/>
  <line x1="18.7" y1="22.5" x2="20.8" y2="27.2" stroke="url(#g)" stroke-width="0.5" stroke-linecap="round"/>

  <!-- Inner circuit patterns -->
  <path d="M11.2 12.16 L13.6 10.56 L16 12.16 L18.4 10.56 L20.8 12.16" fill="none" stroke="url(#g)" stroke-width="0.64" stroke-linecap="round" stroke-linejoin="round"/>
  <path d="M11.2 19.84 L13.6 21.44 L16 19.84 L18.4 21.44 L20.8 19.84" fill="none" stroke="url(#g)" stroke-width="0.64" stroke-linecap="round" stroke-linejoin="round"/>
  <path d="M12.16 11.2 L10.56 13.6 L12.16 16 L10.56 18.4 L12.16 20.8" fill="none" stroke="url(#g)" stroke-width="0.64" stroke-linecap="round" stroke-linejoin="round"/>
  <path d="M19.84 11.2 L21.44 13.6 L19.84 16 L21.44 18.4 L19.84 20.8" fill="none" stroke="url(#g)" stroke-width="0.64" stroke-linecap="round" stroke-linejoin="round"/>

  <!-- Central void -->
  <circle cx="16" cy="16" r="2.56" fill="#0a0e14" stroke="url(#g)" stroke-width="0.64"/>
</svg>
